<svg xmlns="http://www.w3.org/2000/svg" width="258" height="258" fill="none"><path fill="#4CAF50" stroke="#fff" d="M40.198 190.184C-36.116 57.735 116.512-17.418 186.093 36.157c6.584-2.977 12.719-9.177 14.964-11.906C66.384-58.343-49.583 97.916 23.738 199.113c108.486 144.353 281.316-13.394 220.713-124.264-10.774 8.334-14.465 13.89-14.963 15.626C267.645 225.9 105.29 280.963 40.198 190.184Z"/><path fill="#4CAF50" stroke="#fff" d="M72.03 97.671c-18.796-7.398-20.172 4.031-18.51 10.67l46.276 68.29c10.821 18.779 24.443 7.825 29.902 0C154.758 119.723 223.674 47.165 255 18c-62.082 2.276-118.42 84.413-138.829 125.197-1.14 2.277-3.798 2.372-4.984 2.134-8.543-13.088-29.665-37.227-39.157-47.66Z"/></svg>