<svg xmlns="http://www.w3.org/2000/svg" width="258" height="258" fill="none"><path fill="#D32F2F" stroke="#fff" d="m157.25 24.313.218.031.171-.14c4.071-3.335 13.094-10.594 16.728-13.037l.72-.484-.78-.38C129.099-11.72 71.144 5.105 34.93 43.36 16.812 62.5 4.111 87.025 1.157 114.78c-2.955 27.758 3.845 58.711 24.667 90.692l.009.013.01.013c47.439 63.661 124.724 63.642 176.819 28.071 26.052-17.789 45.832-44.482 52.446-76.58 6.616-32.106.049-69.565-26.498-108.857l-.232-.343-.381.164c-1.829.79-4.696 2.473-7.417 4.971-2.723 2.498-5.327 5.837-6.58 9.945l-.081.265.182.21c36.369 41.644 26.37 104.378-7.999 143.06-17.17 19.326-40.392 32.603-66.886 34.226-26.488 1.624-56.319-8.396-86.723-35.798-29.926-28.275-38.104-78.385-21.595-118.956 8.25-20.273 22.656-38.144 43.575-49.708C95.39 24.605 122.855 19.33 157.25 24.313Zm-45.317 79.961c-1.172.197-2.28-.287-2.976-.838-1.29-2.861-5.085-8.91-9.288-15.295a812.972 812.972 0 0 0-12.05-17.727l-.021-.032-.027-.027c-4.323-4.516-8.558-6.677-12.389-7.11-3.837-.432-7.206.878-9.76 3.184-5.037 4.548-6.935 13-3.13 19.722-.047.296-.018.625.048.957.087.435.25.937.475 1.49.45 1.107 1.164 2.478 2.075 4.038 1.823 3.122 4.468 7.056 7.452 11.249 5.956 8.367 13.294 17.801 18.251 23.956.09.206.14.51.137.909-.003.42-.064.901-.162 1.398a16.135 16.135 0 0 1-.737 2.528c-12.832 12.973-24.661 33.617-28.98 42.327l-.037.074-.01.083c-.92 6.957-.466 11.909.943 15.315 1.42 3.435 3.803 5.275 6.632 5.986 2.798.704 5.99.295 9.058-.655 3.075-.953 6.075-2.463 8.517-4.019l.048-.03.039-.04c2.172-2.19 6.454-8.061 10.896-14.458a784.261 784.261 0 0 0 12.03-17.901l.006-.008.005-.009c.837-1.407 1.753-1.728 2.51-1.678.803.052 1.561.531 2.019.985 5.522 7.109 14.816 15.899 24.169 23.988 9.371 8.104 18.83 15.528 24.682 19.89l.074.055.089.025c6.906 1.935 12.103 2.1 15.881 1.045 3.801-1.061 6.14-3.353 7.295-6.24 1.147-2.865 1.11-6.27.271-9.568-.84-3.302-2.494-6.54-4.639-9.096l-.013-.016-.015-.015c-1.227-1.237-33.034-31.266-48.779-46.12-.803-.813-1.084-1.769-1.107-2.652-.022-.873.209-1.658.426-2.111 15.266-20.917 79.45-90.613 109.675-122.887l.748-.799-1.093-.043c-11.853-.466-24.24 3.296-36.476 9.678-12.239 6.383-24.357 15.403-35.684 25.495-22.652 20.183-42.188 44.695-53.256 61.118l-.025.037-.018.041c-1.177 2.671-2.589 3.601-3.779 3.801Z"/></svg>